<?xml version="1.0" encoding="UTF-8" standalone="no"?>
<!-- Created with Inkscape (http://www.inkscape.org/) -->

<svg
   xmlns:dc="http://purl.org/dc/elements/1.1/"
   xmlns:cc="http://creativecommons.org/ns#"
   xmlns:rdf="http://www.w3.org/1999/02/22-rdf-syntax-ns#"
   xmlns:svg="http://www.w3.org/2000/svg"
   xmlns="http://www.w3.org/2000/svg"
   xmlns:sodipodi="http://sodipodi.sourceforge.net/DTD/sodipodi-0.dtd"
   xmlns:inkscape="http://www.inkscape.org/namespaces/inkscape"
   width="120.02331mm"
   height="115.29378mm"
   viewBox="0 0 120.02331 115.29378"
   version="1.1"
   id="svg8"
   inkscape:version="0.92.3 (2405546, 2018-03-11)"
   sodipodi:docname="curry_chronicles.svg"
   inkscape:export-filename="C:\Users\Alexandre\Desktop\Temporaire\Curry_Chronicles.png"
   inkscape:export-xdpi="261"
   inkscape:export-ydpi="261">
  <defs
     id="defs2">
    <inkscape:path-effect
       effect="spiro"
       id="path-effect821"
       is_visible="true" />
  </defs>
  <sodipodi:namedview
     id="base"
     pagecolor="#ffffff"
     bordercolor="#666666"
     borderopacity="1.0"
     inkscape:pageopacity="0.0"
     inkscape:pageshadow="2"
     inkscape:zoom="1.2739847"
     inkscape:cx="262.9345"
     inkscape:cy="210.49508"
     inkscape:document-units="mm"
     inkscape:current-layer="svg8"
     showgrid="false"
     showguides="false"
     inkscape:guide-bbox="true"
     inkscape:snap-global="false"
     inkscape:window-width="1920"
     inkscape:window-height="1017"
     inkscape:window-x="-8"
     inkscape:window-y="-8"
     inkscape:window-maximized="1"
     fit-margin-top="0"
     fit-margin-left="0"
     fit-margin-right="0"
     fit-margin-bottom="0">
    <sodipodi:guide
       position="44.366839,-1.2619279e-06"
       orientation="0,1"
       id="guide829"
       inkscape:locked="false" />
    <sodipodi:guide
       position="18.842599,120.00402"
       orientation="0,1"
       id="guide831"
       inkscape:locked="false" />
    <sodipodi:guide
       position="9.579858e-05,93.94524"
       orientation="1,0"
       id="guide833"
       inkscape:locked="false" />
    <sodipodi:guide
       position="120.00412,43.96584"
       orientation="1,0"
       id="guide835"
       inkscape:locked="false" />
    <sodipodi:guide
       position="60.024241,70.6421"
       orientation="1,0"
       id="guide837"
       inkscape:locked="false" />
    <sodipodi:guide
       position="82.32484,55.52305"
       orientation="0,1"
       id="guide839"
       inkscape:locked="false" />
    <sodipodi:guide
       position="67.356118,42.62239"
       orientation="0,1"
       id="guide982"
       inkscape:locked="false" />
    <sodipodi:guide
       position="102.82115,78.38113"
       orientation="-0.70710678,0.70710678"
       id="guide984"
       inkscape:locked="false" />
  </sodipodi:namedview>
  <metadata
     id="metadata5">
    <rdf:RDF>
      <cc:Work
         rdf:about="">
        <dc:format>image/svg+xml</dc:format>
        <dc:type
           rdf:resource="http://purl.org/dc/dcmitype/StillImage" />
        <dc:title />
      </cc:Work>
    </rdf:RDF>
  </metadata>
  <g
     inkscape:label="bol"
     inkscape:groupmode="layer"
     id="layer1"
     transform="translate(-29.93409,-81.881053)">
    <path
       style="fill:#f49b25;fill-opacity:1;stroke:none;stroke-width:0.26458332px;stroke-linecap:butt;stroke-linejoin:miter;stroke-opacity:1"
       d="m 29.934185,141.65178 c 0,0 5.406583,55.52305 60.024145,55.52305 54.61756,0 59.97988,-55.52305 59.97988,-55.52305 0,0 0.0443,16.63096 -59.97988,17.19792 -60.024145,0.56696 -60.024145,-17.19792 -60.024145,-17.19792 z"
       id="path841"
       inkscape:connector-curvature="0"
       sodipodi:nodetypes="cscsc" />
    <path
       style="fill:#f49b25;fill-opacity:1;stroke:none;stroke-width:0.99999994px;stroke-linecap:butt;stroke-linejoin:miter;stroke-opacity:1"
       d="m 340,502.51953 c -16.75863,0.0528 -32.1376,0.29538 -46.51172,0.66602 -5.89761,2.18004 -11.7082,4.14923 -17.19726,5.76367 -17.1946,5.05723 -17.35544,16.95483 -12.73829,28.11133 22.00102,-1.05393 47.27324,-1.6836 76.44727,-1.6836 21.53134,0 35.94648,-0.0283 53.4828,0.67372 5.82365,-5.83712 16.22188,-16.85544 31.37866,-31.80159 C 399.61742,502.9412 375.48196,502.40773 340,502.51953 Z m 113.51708,3.77713 c -18.3941,15.72418 -29.56289,24.52475 -36.72024,30.6892 128.85048,6.62394 140.97074,30.53367 140.97074,30.53367 4.69034,-10.17844 7.18041,-21.04445 8.92773,-32.14258 0,0 5.20466,-20.97509 -113.17823,-29.08029 z m -239.937,1.2385 c -100.22677,9.20379 -100.44336,27.84179 -100.44336,27.84179 1.42279,10.64237 3.75799,20.22127 6.2793,29.58203 0,0 13.29657,-14.77717 81.46289,-22.91601 -5.84667,-8.35818 -6.49357,-18.29149 6.12695,-28.80859 2.3,-1.91667 4.48813,-3.81621 6.57422,-5.69922 z"
       transform="scale(0.26458333)"
       id="path853"
       inkscape:connector-curvature="0"
       sodipodi:nodetypes="scccsccscccccccccsc" />
  </g>
  <g
     inkscape:groupmode="layer"
     id="layer4"
     inkscape:label="morceaux"
     transform="translate(-29.93409,-81.881053)">
    <path
       style="fill:#f49b25;fill-opacity:1;stroke:none;stroke-width:0.26458332px;stroke-linecap:butt;stroke-linejoin:miter;stroke-opacity:1"
       d="m 49.116726,146.74228 c 0,0 -6.749656,-0.31152 -5.711249,1.24609 1.038408,1.55761 4.153633,2.18066 4.153633,2.18066 l 3.219069,-1.55761 2.492179,0.5192 -0.934566,-2.2845 -1.869136,-0.20768 z"
       id="path1001"
       inkscape:connector-curvature="0" />
    <path
       style="fill:#f49b25;fill-opacity:1;stroke:none;stroke-width:0.26458332px;stroke-linecap:butt;stroke-linejoin:miter;stroke-opacity:1"
       d="m 62.200673,153.9073 h 5.607404 c 0,0 0.415364,-3.21907 -1.453771,-3.42675 -1.869136,-0.20768 -3.426749,-0.62304 -3.426749,-0.62304 0,0 0.415364,1.66145 -0.519202,1.97297 -0.934569,0.31152 -0.207682,2.07682 -0.207682,2.07682 z"
       id="path1003"
       inkscape:connector-curvature="0" />
    <path
       style="fill:#f49b25;fill-opacity:1;stroke:none;stroke-width:0.26458332px;stroke-linecap:butt;stroke-linejoin:miter;stroke-opacity:1"
       d="m 118.58626,153.59578 c -0.10384,-2.07682 -0.41537,-3.73827 2.38833,-3.53059 2.80371,0.20768 5.71125,-0.83073 5.71125,-0.83073 0,0 -1.24609,2.18066 -1.24609,2.59602 0,0.41536 1.7653,0.72689 1.7653,0.72689 l -0.10384,0.83073"
       id="path1005"
       inkscape:connector-curvature="0" />
    <path
       style="fill:#f49b25;fill-opacity:1;stroke:none;stroke-width:0.26458332px;stroke-linecap:butt;stroke-linejoin:miter;stroke-opacity:1"
       d="m 85.876386,144.35394 c -1.972975,1.86914 -2.180657,-1.24609 -2.180657,-1.24609 0,0 -4.465158,0.10384 -3.842112,1.55761 0.623046,1.45377 -0.415364,1.97298 -0.415364,1.97298 l 7.788066,-0.20768"
       id="path1007"
       inkscape:connector-curvature="0" />
    <path
       style="fill:#f49b25;fill-opacity:1;stroke:none;stroke-width:0.26458332px;stroke-linecap:butt;stroke-linejoin:miter;stroke-opacity:1"
       d="m 111.21355,146.84612 c 0,0 0.20769,-3.73827 2.90755,-2.49218 2.69986,1.24609 3.84211,1.24609 3.84211,1.24609 l 0.20768,1.14225"
       id="path1009"
       inkscape:connector-curvature="0" />
  </g>
  <g
     inkscape:groupmode="layer"
     id="layer3"
     inkscape:label="cuiller"
     style="display:inline"
     transform="translate(-29.93409,-81.881053)">
    <path
       style="fill:#f49b25;fill-opacity:1;stroke:none;stroke-width:0.30212817px;stroke-linecap:butt;stroke-linejoin:miter;stroke-opacity:1"
       d="m 147.19642,104.13157 c -0.30954,-0.004 -0.64807,0.0208 -1.01617,0.0798 -3.92642,0.63024 -42.02995,38.99639 -42.02995,38.9964 l 0.32595,0.11698 c -4.78457,-0.72647 -12.743522,3.00615 -16.299372,6.65834 l -4.448997,4.56919 h 20.065069 c 0,0 6.96075,-5.69623 3.56975,-9.76878 -0.23112,-0.27756 -0.50043,-0.5125 -0.80075,-0.71135 0.008,-0.007 27.32241,-23.5831 42.74215,-36.15764 1.20009,-0.97866 0.88443,-3.74253 -2.10768,-3.78298 z"
       id="path986"
       inkscape:connector-curvature="0" />
  </g>
  <g
     style="display:inline;fill:#e13b2b;fill-opacity:1"
     inkscape:label="Copie de cuiller"
     id="g997"
     inkscape:groupmode="layer"
     transform="translate(-29.93409,-81.881053)" />
  <g
     style="display:inline"
     inkscape:label="fumet erode"
     id="g966"
     inkscape:groupmode="layer"
     transform="translate(-29.93409,-81.881053)">
    <path
       style="fill:#f49b25;fill-opacity:1;stroke:none;stroke-width:0.26458332px;stroke-linecap:butt;stroke-linejoin:miter;stroke-opacity:1"
       d="m 131.5625,82.085938 c -8.1787,5.52255 -18.63932,5.430699 -27.68164,2.332031 -5.331088,-0.806031 -14.610107,-0.618113 -15.957032,5.707031 2.656623,2.187251 2.337253,7.054803 -1.699219,7.304688 -7.665597,1.379937 -16.544175,-2.867982 -22.949218,3.226562 -3.709606,3.23192 -9.406608,8.30486 -7.304688,13.75391 4.537309,2.18617 10.831225,6.08948 8.728516,12.14062 -1.473394,6.01947 -8.073829,8.63754 -10.611328,13.74414 1.129761,4.19001 6.529917,7.47779 10.707636,7.20925 3.497793,-0.13356 6.681037,-0.0905 3.657598,-3.42019 -2.936771,-4.06647 -1.145169,-10.43075 4.054687,-11.33398 7.769154,-2.87164 16.964577,-5.43358 22.246094,-12.06445 -3.597435,-3.32722 -10.245814,-6.42291 -8.544922,-12.56836 2.605922,-6.25038 11.228028,-5.10422 16.577726,-7.04862 10.86269,-1.618239 24.17553,-4.924702 28.33634,-16.592008 -0.0787,-0.340101 1.65103,-3.405098 0.43945,-2.390624 z"
       id="path964"
       inkscape:connector-curvature="0" />
  </g>
  <g
     inkscape:groupmode="layer"
     id="g973"
     inkscape:label="fumet plein"
     style="display:none"
     transform="translate(-29.93409,-81.881053)">
    <path
       style="fill:#f49b25;fill-opacity:1;stroke:none;stroke-width:0.26458332px;stroke-linecap:butt;stroke-linejoin:miter;stroke-opacity:1"
       d="m 62.518808,149.77827 c 0,0 -16.819941,-6.42559 -7.748513,-13.98512 9.071429,-7.55952 12.095238,-14.1741 1.889882,-18.52083 -10.205357,-4.34673 5.291669,-22.867558 15.686012,-22.111608 10.394342,0.75596 18.331852,1.51191 14.363095,-3.21279 -3.968753,-4.72471 6.236607,-13.229174 21.733626,-8.50447 15.49703,4.7247 26.26935,-6.272641 26.26935,-6.272641 0,0 0.18899,18.745861 -21.35566,23.659539 -21.544639,4.9137 -25.702375,4.15774 -25.324399,9.6384 0.37798,5.48065 9.4494,6.80357 8.69345,10.77232 -0.75595,3.96875 -13.985117,10.58333 -23.62351,13.41816 -9.638393,2.83482 0.944941,13.79612 0.944941,13.79612 v 0"
       id="path971"
       inkscape:connector-curvature="0" />
  </g>
  <path
     style="fill:#e13b2b;fill-opacity:1;stroke-width:0.78493881"
     d="M 206.41891,434.77401 C 150.09849,430.59216 102.95859,409.22561 67.190043,371.6674 36.060546,338.98035 12.716614,291.76692 2.7965568,241.43067 -0.36552901,225.38565 -0.21210786,223.87513 4.9382395,220.3446 13.232095,214.65921 26.561596,209.98153 45.421982,206.13776 c 13.09271,-2.66832 35.592417,-5.96939 46.003398,-6.74945 l 7.064449,-0.52931 -5.580915,5.39082 c -3.069503,2.96496 -6.405878,6.98033 -7.414155,8.92305 -2.417046,4.65709 -2.510093,10.91292 -0.230749,15.51368 0.912044,1.84092 1.435182,3.47462 1.162534,3.63044 -0.272656,0.15583 -2.615071,0.52571 -5.205369,0.82197 -21.009943,2.4029 -46.456274,8.32476 -61.168087,14.235 l -5.437435,2.18441 3.082618,2.68348 c 4.529571,3.94308 16.049342,10.51442 25.453373,14.51963 30.303294,12.90627 71.439746,20.40927 128.328616,23.40626 22.8712,1.20489 93.98628,0.48592 115.39488,-1.16663 59.77868,-4.61438 99.96391,-12.86574 129.10191,-26.50889 8.40792,-3.93681 19.64399,-10.528 19.64399,-11.52338 0,-0.70604 -8.07261,-4.2135 -15.69878,-6.82094 -14.5952,-4.9902 -40.14831,-10.00496 -65.54239,-12.8626 -12.72817,-1.43232 -43.51769,-3.97884 -48.14815,-3.98219 -1.36448,-0.001 2.77307,-3.85292 16.09124,-14.98042 l 17.92801,-14.97909 8.24186,0.4844 c 21.09862,1.24003 53.2574,5.60976 69.46017,9.43823 16.41909,3.87959 29.0521,9.23786 33.08795,14.0342 1.88702,2.24259 2.0008,2.812 1.58651,7.93982 -1.05509,13.05947 -8.36179,40.96815 -15.87939,60.653 -5.52352,14.46331 -15.10858,34.02354 -22.21672,45.3376 -37.75575,60.09603 -92.48414,93.10955 -164.54834,99.25964 -8.63742,0.73714 -35.13259,0.90957 -43.5641,0.28352 z"
     id="path4578"
     inkscape:connector-curvature="0"
     transform="scale(0.26458333)" />
  <path
     style="fill:#e13b2b;fill-opacity:1;stroke-width:0.78493881"
     d="m 63.167583,256.76689 c -6.277817,-1.88643 -12.166551,-5.77572 -12.166551,-8.03556 0,-2.09148 4.441831,-2.85354 18.648311,-3.19942 l 14.331148,-0.34891 1.62945,3.68364 c 0.896197,2.02601 1.440793,3.8723 1.210211,4.10288 -0.230582,0.23059 -2.114515,0.089 -4.186517,-0.3146 -3.382585,-0.6589 -4.234818,-0.50347 -8.345912,1.52211 -7.014768,3.45625 -7.703259,3.6166 -11.12014,2.58986 z"
     id="path4580"
     inkscape:connector-curvature="0"
     transform="scale(0.26458333)" />
  <path
     style="fill:#e13b2b;fill-opacity:1;stroke-width:0.78493881"
     d="m 123.60787,247.2487 c -9.41419,-2.34398 -18.76572,-7.6883 -24.574622,-14.04416 -3.476377,-3.80371 -7.215399,-10.12022 -7.215399,-12.18932 0,-2.2389 5.483741,-8.80226 18.368431,-21.98478 15.55728,-15.91688 18.52413,-20.07327 21.47112,-30.07982 3.30525,-11.22305 1.21632,-19.4806 -7.23818,-28.61247 -4.59259,-4.96054 -13.83142,-11.59993 -21.44628,-15.41216 -5.136688,-2.57158 -5.906665,-4.34139 -5.489476,-12.61775 0.392766,-7.79183 3.131846,-13.804129 10.463626,-22.967716 6.05507,-7.567901 20.67488,-20.812982 26.86096,-24.335175 8.53765,-4.86111 13.90999,-6.002012 28.43923,-6.039515 7.12332,-0.01839 19.13288,0.281605 26.68792,0.666649 15.97478,0.814157 25.82095,-0.152067 30.02926,-2.946832 1.40013,-0.929837 3.36565,-3.277263 4.36781,-5.216501 2.87573,-5.564665 1.51307,-13.450192 -3.21863,-18.625809 -1.43804,-1.572957 -1.50833,-2.079775 -0.67443,-4.86305 1.29238,-4.3136 7.69506,-11.059227 12.92992,-13.622484 13.05119,-6.3905465 35.85606,-7.507564 52.25534,-2.559548 17.73886,5.352196 40.96655,7.334662 56.98132,4.863313 14.11654,-2.17842 30.24596,-7.9763232 39.29415,-14.1247293 1.65182,-1.122438 3.11958,-1.92452009 3.2617,-1.78240465 0.38409,0.38409915 -4.84009,13.81517995 -7.1355,18.34495395 -8.70027,17.169168 -27.40741,32.017158 -51.51159,40.885119 -12.17539,4.479339 -33.88029,9.795224 -47.0805,11.530782 -2.36573,0.311046 -5.702,1.059721 -7.41392,1.663723 -1.71193,0.604002 -9.31333,2.155016 -16.89202,3.446698 -26.24909,4.473792 -35.27046,8.791175 -41.28392,19.757374 -1.94827,3.552892 -2.27364,4.999412 -2.25789,10.038112 0.034,10.8696 5.49122,18.50015 23.02815,32.19889 5.21484,4.0735 9.48152,7.81887 9.48152,8.32307 0,1.56548 -12.31471,12.59213 -19.07628,17.08098 -7.52946,4.99863 -20.61978,11.62137 -31.1598,15.76457 -10.69667,4.20477 -29.48877,10.97487 -34.53731,12.44252 -12.03154,3.49765 -18.93653,12.77607 -19.08965,25.65128 -0.0838,7.04514 1.65297,12.76019 5.34931,17.60266 7.30671,9.57231 5.71479,11.37443 -10.47482,11.85788 -5.46132,0.16309 -10.63612,0.12063 -11.49955,-0.0943 z"
     id="path4582"
     inkscape:connector-curvature="0"
     transform="scale(0.26458333)" />
  <path
     style="fill:#e13b2b;fill-opacity:1;stroke-width:0.78493881"
     d="m 122.16882,271.51999 c -1.28851,-1.2885 -0.4468,-5.76135 1.43905,-7.64721 1.07929,-1.07929 1.96235,-2.86146 1.96235,-3.96037 0,-1.12883 0.44949,-1.99803 1.03324,-1.99803 1.06373,0 8.93832,1.30173 12.16621,2.01117 2.2285,0.48978 4.0692,4.53957 4.0692,8.95277 v 3.16496 h -10.07338 c -5.54036,0 -10.30886,-0.23548 -10.59667,-0.52329 z"
     id="path4584"
     inkscape:connector-curvature="0"
     transform="scale(0.26458333)" />
  <path
     style="fill:#e13b2b;fill-opacity:1;stroke-width:0.78493881"
     d="m 149.84115,225.24722 c -1.77079,-4.51521 -1.82898,-11.51412 -0.12771,-15.36013 2.27692,-5.14736 5.8373,-7.40056 18.83653,-11.92077 l 11.57349,-4.02445 60.44029,0.10809 c 33.24216,0.0594 62.65368,0.41267 65.35893,0.78494 l 4.91865,0.67685 -15.12285,15.07988 -15.12285,15.07987 -59.26288,0.3786 c -32.59458,0.20822 -61.81469,0.62185 -64.93356,0.91916 l -5.67068,0.54057 z"
     id="path4586"
     inkscape:connector-curvature="0"
     transform="scale(0.26458333)" />
  <path
     style="fill:#e13b2b;fill-opacity:1;stroke-width:0.78493881"
     d="m 188.91432,243.57854 c 0.34562,-0.53375 0.62841,-2.72967 0.62841,-4.8798 0,-3.52393 0.22082,-4.01566 2.2399,-4.98768 1.23195,-0.59308 4.23796,-1.25951 6.68002,-1.48095 l 4.44012,-0.40261 0.77689,2.5764 c 1.01951,3.38095 2.7899,4.45506 5.64135,3.42266 2.04126,-0.73906 2.35352,-0.56945 4.3276,2.35054 1.17018,1.73088 2.05323,3.20177 1.96235,3.26864 -0.0909,0.0669 -6.27621,0.34245 -13.74515,0.61241 -10.69062,0.38642 -13.4462,0.28437 -12.95149,-0.47961 z"
     id="path4588"
     inkscape:connector-curvature="0"
     transform="scale(0.26458333)" />
  <path
     style="fill:#e13b2b;fill-opacity:1;stroke-width:0.78493881"
     d="m 213.10316,264.88956 c 11.27312,-11.3948 18.72213,-17.13899 29.21543,-22.52904 13.10469,-6.73142 30.39975,-11.41436 37.16123,-10.06206 1.30508,0.26101 2.17798,0.16151 1.94139,-0.22129 -0.56125,-0.90812 74.25966,-74.40667 104.75273,-102.90136 23.79041,-22.23129 41.51341,-37.515406 49.02719,-42.280512 8.10154,-5.137845 17.68856,-2.00613 17.68856,5.778181 0,3.987705 0.29066,3.701142 -24.72557,24.376461 C 399.36101,140.85501 297.0998,227.64152 291.25588,233.2405 l -1.89877,1.81918 2.82268,3.12438 c 6.78369,7.50874 3.83748,18.66871 -8.25233,31.259 l -4.75808,4.95504 h -37.73661 -37.7366 z"
     id="path4590"
     inkscape:connector-curvature="0"
     transform="scale(0.26458333)" />
  <path
     style="fill:#e13b2b;fill-opacity:1;stroke-width:0.78493881"
     d="m 307.67601,244.15274 c 0,-1.90317 1.98487,-6.14916 3.43783,-7.35415 1.82437,-1.51301 4.87314,-1.28494 9.51366,0.71169 2.15859,0.92875 5.69081,2.14088 7.84939,2.69362 2.88826,0.73958 3.9868,1.41732 4.15988,2.56641 0.21376,1.41912 -0.35856,1.60764 -6.27951,2.06853 -3.58308,0.27892 -9.25217,0.50923 -12.59797,0.51182 -4.94279,0.004 -6.08328,-0.22076 -6.08328,-1.19792 z"
     id="path4592"
     inkscape:connector-curvature="0"
     transform="scale(0.26458333)" />
  <path
     style="fill:#e13b2b;fill-opacity:1;stroke-width:0.78493881"
     d="m 335.14887,266.12056 c 0,-3.57495 0.34431,-4.69715 1.92667,-6.27951 1.76713,-1.76713 2.53084,-1.92763 9.22303,-1.93827 4.013,-0.006 9.55506,-0.54402 12.31569,-1.19476 2.76064,-0.65074 5.16953,-1.03298 5.3531,-0.84941 0.18357,0.18357 -0.39732,1.76681 -1.29087,3.51832 -2.46331,4.82847 -2.17837,6.17723 1.51512,7.17178 1.72686,0.465 3.13975,1.31247 3.13975,1.88327 0,1.44041 -5.82129,2.0264 -20.21217,2.0346 l -11.97032,0.007 z"
     id="path4594"
     inkscape:connector-curvature="0"
     transform="scale(0.26458333)" />
</svg>
